<svg width="33" height="28" viewBox="0 0 33 28" xmlns="http://www.w3.org/2000/svg"><path d="M21.752 11.903L20.5 13.155a.376.376 0 0 1-.534 0l-2.118-2.12a.379.379 0 0 1 0-.534L19.1 9.249a.848.848 0 0 1 1.2 0l1.452 1.453c.33.331.33.868 0 1.201zm-2.239 2.138l-6.929 6.933c-.146.248-.385.248-.533.102l-2.118-2.12a.379.379 0 0 1 0-.535l6.929-6.932a.378.378 0 0 1 .533 0l2.119 2.12c.147.147.147.387-.001.432zm-8.105 7.913l-3.006 1.03-.056.019a.281.281 0 0 1-.339-.34l.019-.054 1.03-3.008.019-.057a.292.292 0 0 1 .055-.081c.111-.11.29-.11.401 0l2.013 2.014a.284.284 0 0 1-.08.457l-.056.02z" fill="#219DA6" fill-rule="evenodd"/></svg>